inDegrees=no
num_controls=7
num_derivatives=13
num_iterations=114
num_multipliers=7
num_parameters=0
num_slacks=7
num_states=26
objective=6.127731
objective_accelerations=0.625323
objective_balance=0.067933
objective_effort=0.509678
objective_height=4.854912
objective_ligament=0.069885
solver_duration=1195.791079
status=Solve_Succeeded
success=true
DataType=double
version=3
OpenSimVersion=4.4-2022-07-23-0e9fedc
endheader
time	/jointset/ground_pelvis/pelvis_tilt/value	/jointset/ground_pelvis/pelvis_tx/value	/jointset/ground_pelvis/pelvis_ty/value	/jointset/hip_l/hip_flexion_l/value	/jointset/hip_l/hip_adduction_l/value	/jointset/hip_l/hip_rotation_l/value	/jointset/back/lumbar_extension/value	/jointset/patellofemoral_l/patellar_flexion_l/value	/jointset/knee_l/knee_flexion_l/value	/jointset/knee_l/knee_adduction_l/value	/jointset/knee_l/knee_rotation_l/value	/jointset/ankle_l/ankle_angle_l/value	/jointset/subtalar_l/subtalar_angle_l/value	/jointset/ground_pelvis/pelvis_tilt/speed	/jointset/ground_pelvis/pelvis_tx/speed	/jointset/ground_pelvis/pelvis_ty/speed	/jointset/hip_l/hip_flexion_l/speed	/jointset/hip_l/hip_adduction_l/speed	/jointset/hip_l/hip_rotation_l/speed	/jointset/back/lumbar_extension/speed	/jointset/patellofemoral_l/patellar_flexion_l/speed	/jointset/knee_l/knee_flexion_l/speed	/jointset/knee_l/knee_adduction_l/speed	/jointset/knee_l/knee_rotation_l/speed	/jointset/ankle_l/ankle_angle_l/speed	/jointset/subtalar_l/subtalar_angle_l/speed	/forceset/tau_hip_flexion_l	/forceset/tau_hip_adduction_l	/forceset/tau_hip_rotation_l	/forceset/tau_knee_flexion_l	/forceset/tau_ankle_angle_l	/forceset/tau_subtalar_angle_l	/forceset/tau_lumbar_extension	lambda_cid13_p0	lambda_cid13_p1	lambda_cid13_p2	lambda_cid13_p3	lambda_cid13_p4	lambda_cid13_p5	lambda_cid14_p0	/jointset/ground_pelvis/pelvis_tilt/accel	/jointset/ground_pelvis/pelvis_tx/accel	/jointset/ground_pelvis/pelvis_ty/accel	/jointset/hip_l/hip_flexion_l/accel	/jointset/hip_l/hip_adduction_l/accel	/jointset/hip_l/hip_rotation_l/accel	/jointset/back/lumbar_extension/accel	/jointset/patellofemoral_l/patellar_flexion_l/accel	/jointset/knee_l/knee_flexion_l/accel	/jointset/knee_l/knee_adduction_l/accel	/jointset/knee_l/knee_rotation_l/accel	/jointset/ankle_l/ankle_angle_l/accel	/jointset/subtalar_l/subtalar_angle_l/accel	gamma_cid13_p0	gamma_cid13_p1	gamma_cid13_p2	gamma_cid13_p3	gamma_cid13_p4	gamma_cid13_p5	gamma_cid14_p0
1	-0.1032112936030553	-0.03337933736795293	0.6623111183692647	1.354714201748657	-0.3277153922160174	0.07939393998797274	-0.9599305742239498	1.499437050223398	1.499437050223458	-0.03281490689071274	-0.1745275221223087	0.355857814386774	0.1017242108983916	0.1061460046100221	0.02522786300017243	0.06978885108630903	-0.3022783787177379	-0.008991572516529931	-0.06326635080697483	-0.0001125216812821762	-0.1561671943061587	-0.156167194306156	-0.003918647172497588	-5.58525254849878e-05	0.03124699402833434	0.003995642922207504	-0.3768031337552446	0.03592809644280564	0.001421854523504912	-0.3930036145562555	-0.0262176529297223	0.01853887137769069	0.4301592365033969	-60.4640862043692	5.213096626307839	-4.344000815335002	19.0086423066128	-809.0504267009011	-60.92088367999594	-0.04013159806072195	0.7758495975448899	-0.1003532149055815	1.697738583425787	-5.150925943744737	-0.08999677764335015	-1.632811529589582	-0.0004637763598259494	-5.404385096629683	-5.404385096629339	-0.5381229840927617	-0.02186800710873709	-1.426628224577064	-0.8349464009576867	-7.7586406854843e-09	2.162545237158874e-08	3.443920667310954e-08	3.789369777418124e-09	-2.232816611193907e-08	1.30269396524279e-07	-1.417051289727677e-08
1.01	-0.1021114189143967	-0.03313200768314278	0.6630937070577615	1.351434652254458	-0.3278090773068477	0.07867913454261263	-0.9599309964510365	1.497605431585847	1.497605431585939	-0.03287947995801538	-0.1745279744243812	0.3560990133509918	0.1017235300122096	0.1138262446134011	0.02424551363228569	0.08672020735865983	-0.3536137312741413	-0.009735052050927751	-0.07968892482641464	5.57148561157313e-05	-0.2101598203384642	-0.2101598203384479	-0.008993303309345422	-3.285109257896448e-05	0.01697500204800112	-0.00412578934891752	-0.3760696594510071	0.03610648535714549	0.001361448051683126	-0.3928704521213839	-0.02630159498219555	0.01868903471997731	0.4298946507837167	-60.4595277215876	5.130707194499672	-4.312161092555531	18.8598882262175	-808.8197719450528	-61.0105544779836	-0.04016146718841339	0.7637058398701443	-0.09605782334286975	1.689526518674348	-5.122174384580026	-0.06496724230489449	-1.646123907358929	0.02961300653668311	-5.397190391296918	-5.397190391295035	-0.4917497374504886	0.01466362337428771	-1.430155405961531	-0.7998454972535229	-1.455118220828955e-08	1.041213148321613e-08	5.93710997226964e-08	1.005582017504107e-08	-2.864787299754835e-08	1.45907802095841e-07	-2.011739281498695e-08
1.02	-0.1009348228980727	-0.03289427789713362	0.6640453477828896	1.347642282340201	-0.3279098859331986	0.07780027464321991	-0.9599289071748266	1.495233788881019	1.495233788881076	-0.03299472214849161	-0.1745281408312048	0.3561969582511645	0.1016418140319034	0.121490270142239	0.02330788323997338	0.103599258412522	-0.4048424627501748	-0.01041627962400831	-0.09607724161536017	0.0003897769034393851	-0.2641720077614005	-0.2641720077613752	-0.01405247180497895	1.32653568762026e-06	0.002596181219661475	-0.01221137590258735	-0.3753361851463695	0.03628487427155217	0.001301041579859685	-0.3927372896864854	-0.02638553703473031	0.01883919806233186	0.4296300650643743	-60.46625998934957	5.050527957647014	-4.28094022717945	18.77214764051584	-808.7395154207821	-61.07946612433316	-0.04019405352918829	0.7726067026365785	-0.09140941979069414	1.687277539728066	-5.129601727670838	-0.07754638537975551	-1.625960083490618	0.0327013256269052	-5.408297374755862	-5.408297374756478	-0.535025455849842	-0.01963276803631622	-1.447993994178325	-0.8277772574664313	-2.052377067300827e-08	-2.524182031661612e-09	8.432170477392376e-08	1.306426020069015e-08	-3.320615501604667e-08	1.637194067902467e-07	-2.68550847645211e-08
1.03	-0.09968215424039925	-0.03266545076243971	0.6651653840324339	1.343338664034705	-0.3280172067800805	0.07675779769873776	-0.9599205858300136	1.492322289294347	1.492322289294392	-0.03316042766018232	-0.1745279200653879	0.3561509660156376	0.101479628175828	0.1289922396302353	0.02249026407773231	0.1203861367122818	-0.4558139936590159	-0.01104114958104619	-0.1124055088858941	0.001508626631902834	-0.3180956193527297	-0.3180956193527317	-0.01908208806501395	3.820277112818972e-05	-0.01177413818729635	-0.02020306831424263	-0.3760033737982614	0.03653437708765311	0.001191300835283923	-0.3917978092404564	-0.02683417492934232	0.01911651240541369	0.4310118836161045	-60.59295094249185	4.909238066684341	-4.209258467641898	18.25832189544137	-809.2157802105694	-61.13208384599243	-0.0402276173400735	0.7313060040947803	-0.0720268816519833	1.67110718069991	-5.070851865895687	-0.05395433899781446	-1.634391224443381	0.1865969798089349	-5.379542757275845	-5.379542757279562	-0.4859697989563663	0.01468018780509982	-1.428480741431599	-0.7814663472074241	-2.648799226978734e-08	-1.547807710395268e-08	1.092725007639434e-07	1.603945522254355e-08	-3.77464633114112e-08	1.81553186985906e-07	-3.360084622458406e-08
1.04	-0.09835600310139359	-0.03244381756281031	0.6664526319060963	1.33852734580149	-0.3281305757341504	0.07555241184641755	-0.9598940519511756	1.488872523650571	1.488872523650574	-0.03337623735207476	-0.1745274640635832	0.3559618846205466	0.1012382051727972	0.1361867664067703	0.02186909622707039	0.1370415832360836	-0.5063824483040475	-0.01162590106336218	-0.128659023180771	0.004032283694457467	-0.3718252191822273	-0.3718252191822536	-0.02407330784009149	4.83737453943838e-05	-0.02602165069333469	-0.02805880529359569	-0.3766705624499668	0.03678387990374864	0.001081560090611035	-0.3908583287944165	-0.02728281282398823	0.01939382674847221	0.4323937021680017	-60.73119238092627	4.770268174560989	-4.138286570708273	17.80436413722291	-809.8460714436634	-61.16446894991685	-0.04026368958434927	0.7111181603442651	-0.05211915747485503	1.660991184536463	-5.048986474909005	-0.06952269043532398	-1.611009488359154	0.3136627924445943	-5.369495022389541	-5.369495022389543	-0.5273461588583261	-0.02497382027107442	-1.4234326139944	-0.8005861710058999	-3.068088758290351e-08	-3.082578555518965e-08	1.33768047424539e-07	1.606623849259993e-08	-4.333953662048112e-08	1.853799739925081e-07	-3.885250221334898e-08
1.05	-0.09695938249488685	-0.03222743880588699	0.6679057154081252	1.333212467060675	-0.3282495458111578	0.07418492966275519	-0.9598356271020468	1.484886464951758	1.484886464951752	-0.03364176203827113	-0.1745270082485049	0.3556308123145931	0.100918928756156	0.1430902839497794	0.0214368911396313	0.1535468684250756	-0.5565133011178324	-0.01215588482271213	-0.1448203454295006	0.007852511149735801	-0.4253509871778284	-0.4253509871778488	-0.02902173652508977	4.324455187086705e-05	-0.04018514049402497	-0.03576996438677256	-0.376702853838672	0.03701551693160247	0.0009489064001435929	-0.3897758641349422	-0.02740857873725045	0.01971658428526755	0.4331701245555425	-60.72495473486312	4.576849448982962	-4.04787906450594	17.29820870088633	-809.8745570242186	-61.25271509321259	-0.04031495084211853	0.6729044633500527	-0.03423258751157169	1.641050024462469	-4.983139512694451	-0.04291637209013426	-1.616169858528862	0.4461764738984407	-5.338778813659852	-5.338778813658981	-0.4771362734177424	0.01182075762083607	-1.41166156861507	-0.7524147699635593	-3.481842894965522e-08	-4.624830067451867e-08	1.582493675435901e-07	1.600088389541267e-08	-4.896550883622933e-08	1.887690424619524e-07	-4.405746740613585e-08
1.06	-0.09549513953054191	-0.03201447438046446	0.6695230023297201	1.327398678826044	-0.328373451756449	0.07265633900349322	-0.959733005227974	1.480366216347885	1.480366216347915	-0.0339564800213634	-0.1745265830800836	0.3551583342295335	0.1005233339502849	0.1497112379756085	0.02118622992691618	0.1698822671492263	-0.6061643470548832	-0.01261307471825558	-0.160880718294195	0.01287168867815768	-0.4786632001940123	-0.4786632001940278	-0.03391196721398228	4.224441889021886e-05	-0.05430280651506579	-0.04332248313955666	-0.3767351452276188	0.03724715395936161	0.0008162527095393105	-0.3886933994755006	-0.02753434465049674	0.02003934182193341	0.4339465469428777	-60.73049907693729	4.385854018131266	-3.958269600724901	16.85002726756517	-810.0599692467226	-61.32210507804039	-0.04036900344516413	0.6546054569082658	-0.01581038253004497	1.627013891568191	-4.953025099562213	-0.05496391767404497	-1.590819611552124	0.5534528070731303	-5.326784026506072	-5.326784026506274	-0.5157065596371758	-0.02414800816253371	-1.414267858064477	-0.7688581029273567	-3.941062931683307e-08	-6.154369999622751e-08	1.810875157709095e-07	1.695025482649187e-08	-5.455855595303243e-08	1.912889537870268e-07	-4.903514204171261e-08
1.07	-0.09396585215687515	-0.03180310152427039	0.6713027585912166	1.321090622453277	-0.3285015539676966	0.07096772091469343	-0.9595746371610763	1.475313974348789	1.47531397434877	-0.03431984078720696	-0.1745261631056319	0.3545448857398358	0.1000530323584643	0.156122447328431	0.02111932091374022	0.1860371059691665	-0.6553815898446258	-0.01299300359547499	-0.176821507926814	0.01895972450507738	-0.5317439369756206	-0.5317439369756325	-0.03875003834430611	4.283202616890028e-05	-0.06838128378079085	-0.05070722839723063	-0.3762942415094984	0.03746705739407597	0.0006591063456632655	-0.3873976694567801	-0.02739531707881562	0.0204127789835335	0.4342647988528457	-60.61272863761939	4.140592417493295	-3.847827109783274	16.31350896375872	-809.7215225706063	-61.43825801631858	-0.04043532314724732	0.6308062649648442	0.002519384583320497	1.60492489103001	-4.896278649307207	-0.02737305205015598	-1.59254568071452	0.6601489406658503	-5.292518236117623	-5.292518236116877	-0.4663714735762515	0.01236759302329763	-1.403803181438835	-0.718703222750989	-4.40270136733953e-08	-7.683233783933955e-08	2.038382612380304e-07	1.79536005197129e-08	-6.014985173478526e-08	1.937626333491029e-07	-5.400072675403352e-08
1.08	-0.0923731671715889	-0.03159146764914874	0.673243104443677	1.314292352696475	-0.3286330286035773	0.06912032752120716	-0.9593506547418694	1.46973216503545	1.469732165035391	-0.03473128508115326	-0.1745256961655499	0.3537908193733606	0.09950979921695408	0.1623907603010835	0.02123843371243326	0.2020001853419405	-0.7042070238594437	-0.0132875596448419	-0.1926357792233489	0.02599455913856186	-0.5845766630424107	-0.5845766630424186	-0.04352867282848986	5.163754744655263e-05	-0.08242638187101291	-0.05790879307745692	-0.3758533377914149	0.0376869608287015	0.0005019599816892882	-0.3861019394380775	-0.02725628950715637	0.02078621614499299	0.4345830507627855	-60.50704870026326	3.897947010131142	-3.738372084251451	15.83328442707723	-809.5433757355515	-61.53712551385112	-0.04050476829001395	0.6260261808741855	0.02139397984379288	1.588662002134956	-4.87466334457732	-0.03788935210362734	-1.565515944335379	0.7428125683859857	-5.277181883542395	-5.277181883542513	-0.5038192304091874	-0.02250442536289955	-1.407592022963821	-0.7322219874379047	-4.83536842518679e-08	-9.349342900436841e-08	2.238275513194578e-07	1.801974348359318e-08	-6.48431536819284e-08	1.925905316398621e-07	-5.862458093516053e-08
